# xmcd
#
# Track frame offsets: 
#        150
#        15892
#        31900
#        48005
#        67900
#        87592
#        108450
#        125337
#        153395
#        174795
#        190925
#        211125
#        226650
#        250537
#
# Disc length: 3667 seconds
#
# Revision: 0
# Processed by: cddbd v1.5.2PL0 Copyright (c) Steve Scherf et al.
# Submitted via: ExactAudioCopy v1.0b3
#
DISCID=9a0e510e
DTITLE=Eagles - The best of Eagles
DYEAR=1900
DGENRE=
TTITLE0=get it over
TTITLE1=desperado
TTITLE2=best of my love
TTITLE3=heartache tonight
TTITLE4=lyin' eyes
TTITLE5=life in the fast lane
TTITLE6=take it to the limit
TTITLE7=hotel california
TTITLE8=new kid in town 
TTITLE9=one of these night
TTITLE10=the one you love
TTITLE11=the long run
TTITLE12=the end of the innocence
TTITLE13=sad cafe
EXTD=
EXTT0=
EXTT1=
EXTT2=
EXTT3=
EXTT4=
EXTT5=
EXTT6=
EXTT7=
EXTT8=
EXTT9=
EXTT10=
EXTT11=
EXTT12=
EXTT13=
PLAYORDER=
